<?xml version="1.0" standalone="no"?>
<!DOCTYPE svg PUBLIC "-//W3C//DTD SVG 20010904//EN"
 "http://www.w3.org/TR/2001/REC-SVG-20010904/DTD/svg10.dtd">
<svg version="1.0" xmlns="http://www.w3.org/2000/svg"
 width="895.000000pt" height="895.000000pt" viewBox="0 0 895.000000 895.000000"
 preserveAspectRatio="xMidYMid meet">
<metadata>
Created by potrace 1.16, written by Peter Selinger 2001-2019
</metadata>
<g transform="translate(0.000000,895.000000) scale(0.100000,-0.100000)"
fill="#000000" stroke="none">
<path d="M1 6798 c1 -1185 5 -2104 10 -2043 35 478 122 881 287 1320 70 186
260 578 323 666 10 15 19 30 19 34 0 14 258 394 286 420 5 6 23 28 39 50 101
139 429 480 600 624 50 41 92 78 95 81 3 3 23 19 45 35 22 16 45 34 50 39 26
27 405 286 419 286 3 0 30 15 59 34 65 42 324 172 462 233 311 137 695 251
1036 306 197 33 305 46 454 56 68 5 -809 9 -2032 10 l-2153 1 1 -2152z"/>
<path d="M4780 8939 c460 -34 886 -127 1300 -284 328 -125 673 -309 975 -520
77 -53 142 -100 145 -104 3 -3 23 -19 45 -36 170 -126 518 -463 682 -662 122
-147 263 -345 367 -513 42 -69 81 -132 86 -140 26 -43 192 -377 224 -453 113
-266 205 -564 280 -912 8 -38 24 -142 36 -230 12 -88 23 -167 24 -175 2 -8 4
897 5 2013 l1 2027 -2142 -1 c-1254 -1 -2095 -5 -2028 -10z"/>
<path d="M2424 7157 c-56 -49 -26 -137 46 -137 57 0 91 83 53 128 -29 34 -66
37 -99 9z"/>
<path d="M6416 7125 c-85 -85 -1 -231 103 -178 91 47 57 203 -44 203 -23 0
-42 -8 -59 -25z"/>
<path d="M6180 6990 c-27 -27 -27 -90 0 -115 48 -43 120 -8 120 59 0 66 -75
101 -120 56z"/>
<path d="M6573 6789 c-27 -10 -53 -47 -53 -75 0 -37 37 -74 74 -74 42 0 70 30
70 75 0 55 -45 91 -91 74z"/>
<path d="M2460 6591 c-94 -29 -189 -115 -244 -221 -125 -238 -102 -564 50
-716 23 -24 66 -55 96 -71 47 -24 64 -27 148 -28 85 0 101 3 150 29 102 53
182 161 235 316 13 38 27 91 31 116 l7 46 40 -6 c23 -4 43 -9 45 -11 3 -2 -1
-60 -7 -128 -17 -167 -2 -217 74 -254 82 -41 135 -15 191 91 l21 40 16 -30
c20 -38 65 -80 100 -93 16 -6 53 -11 83 -11 66 0 118 24 162 74 17 20 33 36
36 36 2 0 14 -15 25 -34 44 -71 119 -69 185 5 20 21 38 39 40 39 2 0 7 -11 10
-25 9 -37 63 -92 102 -105 59 -20 107 10 156 97 l24 42 39 -45 c67 -81 184
-116 269 -80 19 8 53 33 76 56 23 23 43 40 44 38 1 -1 8 -16 16 -32 21 -41 66
-66 120 -66 51 1 66 10 101 62 l26 38 22 -30 c69 -94 232 -94 287 0 17 28 23
31 52 25 39 -7 97 18 119 51 28 43 36 28 31 -62 -4 -76 -2 -86 14 -95 20 -11
59 -3 70 15 4 6 8 59 8 117 0 118 15 177 62 247 21 30 36 42 53 42 28 0 31
-15 39 -197 8 -168 48 -232 137 -220 47 6 91 42 120 100 l20 38 32 -42 c53
-69 79 -83 160 -87 65 -3 76 -1 117 26 25 15 58 47 74 70 32 47 86 189 86 228
0 39 24 28 57 -28 50 -84 73 -208 39 -208 -8 0 -31 -15 -50 -34 -27 -25 -36
-42 -36 -65 0 -27 5 -34 36 -47 45 -19 102 -11 140 19 29 22 63 89 64 124 0
13 12 29 33 42 65 41 127 112 127 145 0 29 -37 18 -50 -14 -15 -36 -94 -105
-110 -95 -5 3 -10 13 -10 21 0 46 -86 151 -165 202 -22 15 -42 27 -44 29 -2 1
-5 26 -6 54 -2 37 -9 57 -21 66 -74 54 -128 -63 -58 -128 29 -27 28 -48 -8
-154 -47 -140 -103 -205 -179 -205 -41 0 -79 33 -103 92 -23 53 -20 62 20 77
43 16 100 64 120 102 7 15 14 46 14 68 0 55 -34 81 -106 81 -100 0 -176 -86
-190 -218 -7 -70 -30 -134 -65 -183 -21 -29 -52 -38 -64 -18 -4 6 -13 77 -21
157 -21 217 -41 262 -117 262 -33 0 -46 -6 -74 -36 -18 -20 -44 -57 -57 -82
l-23 -45 -7 66 c-9 88 -13 97 -46 97 -37 0 -63 -26 -56 -54 26 -90 10 -186
-41 -246 -23 -28 -69 -41 -85 -24 -3 3 0 29 8 57 26 98 16 201 -24 250 -20 22
-94 23 -113 1 -12 -14 -14 -14 -21 5 -10 29 -29 34 -76 21 -93 -25 -151 -113
-159 -244 -6 -91 -32 -158 -71 -184 -24 -15 -26 -15 -50 13 -24 28 -24 32 -17
124 3 53 11 118 16 145 5 27 9 68 9 92 0 42 -1 44 -30 44 -16 0 -40 -5 -53
-11 -21 -9 -24 -21 -36 -122 -17 -152 -25 -177 -72 -230 -50 -57 -101 -75
-152 -53 -104 43 -154 280 -76 358 33 34 43 34 70 7 24 -24 21 -69 -6 -99 -26
-29 -19 -43 18 -36 38 7 87 57 87 89 0 33 -35 84 -71 102 -40 21 -81 14 -140
-23 -70 -45 -101 -98 -109 -190 -14 -156 -102 -274 -149 -199 -21 33 -30 95
-19 134 8 30 6 38 -12 58 -12 13 -30 25 -41 28 -22 6 -49 -17 -49 -41 -1 -25
-38 -104 -62 -129 -27 -29 -49 -29 -74 -2 -43 48 -6 223 64 301 29 32 41 38
66 36 28 -3 31 -7 34 -39 2 -23 -2 -40 -12 -49 -22 -17 -20 -25 9 -38 36 -17
59 -15 78 6 26 29 21 77 -11 113 -49 54 -161 51 -239 -8 -42 -31 -78 -93 -109
-189 -44 -132 -100 -194 -178 -194 -38 0 -77 37 -103 97 -20 49 -17 56 31 76
25 10 63 38 85 63 36 39 41 49 41 93 0 63 -30 91 -96 91 -116 0 -183 -78 -198
-230 -8 -72 -63 -185 -91 -185 -36 0 -49 63 -50 232 0 103 -4 156 -12 164 -9
9 -33 10 -92 3 l-79 -10 -7 41 c-14 89 -72 117 -101 49 -17 -41 -13 -62 23
-105 l26 -30 -22 -87 c-41 -162 -120 -287 -216 -342 -114 -65 -218 -47 -282
47 -139 205 -112 672 47 831 117 117 261 53 206 -92 -20 -52 -42 -74 -93 -91
-30 -10 -39 -19 -41 -40 -5 -36 14 -55 55 -55 103 0 184 98 170 205 -15 106
-79 166 -177 164 -30 0 -66 -4 -80 -8z m2665 -559 c0 -56 5 -79 34 -136 32
-65 33 -70 21 -112 -14 -50 -45 -94 -65 -94 -29 0 -66 46 -80 100 -34 128 -1
272 70 301 11 4 20 8 20 8 0 1 0 -29 0 -67z"/>
<path d="M1849 6552 c-30 -27 -34 -36 -34 -82 0 -46 4 -55 34 -82 28 -25 40
-29 69 -25 63 11 97 66 81 136 -10 44 -37 70 -81 77 -30 5 -41 1 -69 -24z"/>
<path d="M4703 6420 c-24 -10 -29 -38 -17 -99 6 -27 11 -31 40 -31 68 0 103
33 88 83 -16 52 -56 69 -111 47z"/>
<path d="M7220 5330 c-27 -27 -27 -90 0 -115 29 -26 79 -24 102 4 41 52 10
131 -52 131 -17 0 -39 -9 -50 -20z"/>
<path d="M4424 5018 c-5 -7 -9 -83 -11 -168 -3 -203 -3 -202 -52 -194 -92 15
-193 -53 -231 -153 -54 -146 10 -288 122 -266 49 9 70 21 105 61 l31 36 17
-42 c24 -59 66 -92 118 -92 49 1 73 18 111 79 l28 43 28 -33 c16 -19 29 -37
30 -40 0 -4 22 -16 49 -28 147 -63 274 23 334 227 16 52 16 52 -6 52 -19 0
-26 -12 -47 -72 -31 -90 -96 -166 -151 -174 -29 -5 -41 -1 -68 22 -31 25 -70
93 -71 120 0 5 19 19 43 31 65 31 104 69 123 118 14 38 15 49 4 75 -26 62
-102 77 -179 35 -77 -42 -111 -109 -111 -219 0 -90 -73 -214 -111 -190 -47 29
-50 167 -9 445 37 252 38 302 8 323 -27 19 -94 21 -104 4z m-28 -484 c-8 -98
-35 -179 -71 -219 -32 -34 -55 -29 -78 15 -23 44 -16 123 17 196 31 67 61 94
104 94 l35 0 -7 -86z"/>
<path d="M1 2148 l-1 -2148 2028 1 c1193 1 2004 5 1972 10 -30 5 -91 13 -134
19 -332 41 -770 161 -1121 307 -137 57 -462 222 -575 292 -94 59 -282 183
-290 192 -3 3 -26 20 -52 37 -25 18 -52 38 -60 44 -7 7 -31 26 -53 43 -212
157 -577 522 -755 755 -19 25 -37 47 -40 50 -3 3 -23 30 -45 60 -164 231 -229
333 -327 516 -36 65 -70 128 -76 139 -5 11 -20 43 -33 70 -12 28 -36 82 -54
120 -39 85 -125 301 -125 315 0 6 -4 18 -10 28 -22 38 -122 399 -155 557 -42
204 -68 399 -84 625 -5 64 -9 -836 -10 -2032z"/>
<path d="M8922 3863 c-69 -516 -250 -1070 -495 -1520 -111 -202 -267 -448
-360 -563 -7 -9 -25 -33 -42 -55 -188 -252 -551 -615 -800 -800 -22 -17 -46
-35 -55 -42 -96 -75 -253 -179 -408 -272 -56 -33 -104 -61 -106 -61 -2 0 -36
-18 -77 -41 -115 -64 -340 -166 -494 -223 -378 -143 -651 -211 -1085 -271 -80
-11 214 -13 1928 -14 l2022 -1 0 2015 c0 1108 -1 2015 -3 2015 -2 0 -13 -75
-25 -167z"/>
<path d="M1815 3635 c-49 -48 -20 -135 45 -135 66 0 95 86 45 135 -31 32 -59
32 -90 0z"/>
<path d="M7433 3534 c-9 -4 -10 -24 -7 -67 3 -34 -1 -119 -10 -189 -9 -69 -16
-172 -16 -228 0 -107 -7 -131 -58 -198 -30 -40 -70 -62 -110 -62 -43 0 -92 57
-115 135 -5 16 2 24 35 39 51 23 104 70 124 107 52 102 -48 184 -161 129 -82
-40 -125 -118 -125 -229 0 -28 -5 -40 -17 -44 -10 -2 -25 -8 -34 -11 -14 -6
-15 3 -11 72 5 91 -8 144 -46 184 -27 29 -77 44 -110 34 -28 -9 -78 -62 -99
-105 l-17 -36 -8 70 c-5 38 -14 73 -21 77 -23 14 -56 8 -84 -16 -27 -24 -27
-25 -15 -72 7 -27 16 -77 19 -112 5 -58 3 -68 -31 -137 -43 -86 -72 -104 -109
-66 -19 19 -22 33 -22 102 0 76 -2 82 -28 105 -45 38 -58 30 -80 -46 -18 -61
-69 -130 -96 -130 -10 0 -26 9 -36 20 -42 46 3 240 72 313 33 34 77 36 94 5 9
-17 8 -28 -7 -56 -18 -33 -18 -34 1 -48 45 -33 99 -6 99 50 0 79 -95 125 -196
97 -74 -21 -147 -104 -174 -198 -15 -51 -36 -74 -109 -115 -6 -4 -10 29 -10
90 0 87 -3 101 -25 134 -63 95 -166 87 -220 -16 l-25 -47 -10 73 -10 73 -33 3
c-43 4 -82 -21 -82 -53 0 -13 6 -52 14 -87 21 -93 28 -282 17 -458 -11 -166
-25 -252 -47 -287 -21 -33 -17 -79 8 -103 39 -36 113 -18 122 29 8 38 26 436
26 579 0 135 17 205 65 267 29 38 63 54 76 34 16 -27 21 -113 9 -195 -11 -80
-14 -85 -44 -101 -47 -23 -66 -44 -66 -70 0 -20 5 -23 40 -23 51 0 90 20 127
63 37 44 152 104 164 85 5 -7 9 -20 9 -28 0 -26 59 -88 89 -95 38 -8 98 22
130 66 l24 32 23 -46 c30 -57 70 -87 121 -87 46 0 74 18 112 71 l28 38 7 -46
c3 -25 6 -78 6 -117 0 -72 0 -72 -44 -115 -111 -109 -135 -300 -44 -347 98
-51 156 41 167 266 l6 115 75 3 c82 4 200 -12 264 -34 23 -8 97 -26 165 -40
155 -31 196 -27 217 22 16 39 18 88 4 114 -9 18 -12 17 -62 -3 -48 -19 -69
-20 -223 -17 -249 6 -313 6 -380 0 l-60 -5 -3 124 c-3 141 7 211 44 290 68
151 133 133 120 -34 -11 -147 -13 -153 -61 -174 -44 -20 -65 -45 -65 -79 0
-37 66 -44 116 -13 18 11 46 37 64 59 25 32 43 43 83 53 46 11 52 10 62 -6 62
-107 180 -152 280 -106 39 17 105 81 105 101 0 21 18 9 30 -19 21 -52 64 -83
120 -89 47 -4 52 -3 84 32 35 36 91 164 98 221 2 24 -1 30 -16 30 -14 0 -24
-19 -46 -83 -47 -141 -100 -196 -132 -139 -18 31 -15 287 6 449 22 172 21 219
-5 252 -16 20 -29 26 -57 25 -20 0 -42 -3 -49 -5z"/>
<path d="M6330 3490 c-24 -24 -26 -77 -4 -108 20 -28 83 -31 107 -4 21 23 22
81 1 110 -20 29 -76 30 -104 2z"/>
<path d="M2002 3295 c-20 -43 -14 -74 17 -103 l29 -27 -19 -90 c-29 -136 -45
-185 -78 -237 -23 -36 -37 -48 -56 -48 -41 0 -60 41 -60 134 0 79 0 80 -31 98
-37 22 -64 15 -64 -16 0 -35 -57 -141 -84 -155 -18 -10 -29 -10 -45 -2 -84 46
19 361 115 349 41 -5 52 -30 30 -75 -17 -35 -17 -38 0 -50 23 -17 68 -17 82 0
35 42 16 114 -38 142 -39 20 -116 19 -165 -4 -90 -42 -156 -154 -158 -270 -1
-78 20 -124 70 -154 45 -26 102 -8 149 46 l34 40 14 -35 c40 -95 144 -129 206
-67 55 55 99 168 130 330 l11 57 77 4 c42 3 78 4 80 2 3 -2 -100 -168 -170
-271 -48 -72 -58 -109 -36 -131 16 -16 261 -15 307 1 19 7 39 19 44 28 16 25
0 67 -33 84 -38 20 -47 19 -53 -4 -7 -30 -55 -55 -116 -62 -31 -3 -58 -5 -60
-3 -2 2 21 34 51 71 115 143 188 262 188 305 0 14 -9 33 -21 43 -18 17 -23 18
-52 5 -18 -7 -69 -15 -114 -18 l-83 -3 0 26 c0 73 -72 117 -98 60z"/>
<path d="M3934 3284 c-17 -41 -11 -69 23 -106 24 -25 25 -29 14 -75 -64 -264
-142 -374 -194 -273 -14 27 -17 49 -13 95 5 66 3 73 -32 97 -34 23 -59 12 -67
-30 -9 -47 -31 -90 -63 -124 -84 -91 -125 68 -57 220 32 72 76 115 113 110 40
-5 50 -31 27 -74 -19 -36 -19 -36 0 -50 23 -17 69 -18 83 -1 56 67 -13 157
-120 157 -118 -1 -212 -101 -242 -257 -16 -85 -49 -133 -112 -163 -37 -18 -49
-20 -77 -11 -19 7 -44 22 -55 34 -51 54 -84 186 -68 272 8 39 45 85 70 85 45
0 63 -83 25 -121 -26 -26 -12 -44 26 -35 44 11 75 50 75 93 0 47 -19 75 -64
97 -60 29 -130 4 -194 -69 -48 -55 -67 -121 -58 -199 6 -44 3 -62 -15 -101
-37 -80 -100 -98 -113 -33 -12 62 -4 184 19 295 7 30 5 34 -28 49 -39 19 -81
13 -91 -12 -4 -9 -11 -48 -16 -87 -21 -146 -60 -233 -114 -252 -23 -8 -30 -6
-42 10 -16 22 -18 115 -4 255 10 94 9 95 -16 118 -27 24 -73 29 -92 10 -15
-15 -16 -143 -2 -258 18 -143 67 -211 142 -195 37 9 115 83 124 119 8 32 24
34 24 4 0 -37 40 -108 71 -123 59 -31 119 -10 160 56 13 22 26 39 29 39 3 0
20 -16 38 -34 44 -46 95 -69 163 -74 66 -5 104 11 165 69 l40 39 23 -30 c47
-64 117 -59 183 13 l36 40 16 -37 c26 -61 72 -96 130 -96 81 0 156 121 202
328 l18 84 40 -7 c22 -3 42 -7 44 -9 2 -2 -2 -60 -9 -128 -15 -151 -9 -184 36
-228 30 -29 43 -34 92 -38 48 -3 62 0 79 16 34 32 63 85 89 163 30 86 32 122
9 117 -11 -2 -28 -35 -48 -94 -37 -107 -59 -144 -86 -144 -32 0 -43 60 -45
233 -1 100 -5 161 -12 168 -8 8 -36 9 -90 4 -43 -4 -80 -8 -83 -9 -3 0 -7 20
-10 45 -7 55 -24 79 -57 79 -18 0 -28 -9 -39 -36z"/>
<path d="M4702 3222 c-9 -7 -10 -20 -3 -58 6 -27 18 -92 26 -144 26 -151 66
-224 132 -236 44 -8 76 13 108 74 l26 47 -6 -80 c-5 -76 -7 -81 -38 -105 -75
-56 -144 -136 -160 -185 -40 -117 -5 -256 75 -297 114 -60 179 76 214 450 l7
72 62 45 c102 73 165 145 180 208 6 23 4 27 -13 27 -14 0 -27 -16 -46 -55 -25
-50 -79 -107 -150 -158 l-29 -21 7 115 c3 63 11 140 15 170 11 66 -4 99 -47
99 -45 0 -58 -19 -70 -105 -19 -142 -64 -245 -107 -245 -13 0 -27 5 -31 11 -4
7 -10 84 -14 173 -8 157 -8 161 -35 183 -26 23 -78 30 -103 15z m273 -615
c-19 -244 -36 -357 -55 -357 -18 0 -50 44 -67 94 -23 66 -23 180 -1 222 20 37
109 125 120 118 4 -3 6 -38 3 -77z"/>
<path d="M6892 2240 c-48 -45 -16 -133 48 -133 22 0 39 7 52 22 58 73 -33 173
-100 111z"/>
<path d="M6509 1781 c-40 -40 -41 -105 -3 -150 21 -26 33 -31 68 -31 58 0 87
31 94 99 4 46 2 53 -26 81 -42 41 -92 42 -133 1z"/>
</g>
</svg>
